<svg xmlns="http://www.w3.org/2000/svg" viewBox="0 0 505.66 476.4"><defs><style>.cls-1{fill:#fff;}</style></defs><g id="Capa_4" data-name="Capa 4"><g id="Capa_1" data-name="Capa 1"><path class="cls-1" d="M256,124.44a24,24,0,1,1,24-24A24,24,0,0,1,256,124.44Zm0-35.94c-7.19,0-12,4.79-12,12s4.79,12,12,12,12-4.8,12-12S263.19,88.5,256,88.5Z" transform="translate(-4.25 -15.01)"/><path class="cls-1" d="M297.93,182.82a5.66,5.66,0,0,1-6-6v-12a18.42,18.42,0,0,0-18-18H238a18.42,18.42,0,0,0-18,18v12a6,6,0,1,1-12,0v-12A29.66,29.66,0,0,1,238,134.9H274a29.66,29.66,0,0,1,29.95,29.95v12A5.66,5.66,0,0,1,297.93,182.82Z" transform="translate(-4.25 -15.01)"/></g><g id="Capa_5" data-name="Capa 5"><path class="cls-1" d="M253.62,15C177.92,15,116.33,76.6,116.33,152.3s61.59,137.29,137.29,137.29S390.91,228,390.91,152.3,329.32,15,253.62,15Zm0,256.28a119,119,0,1,1,119-119A119.13,119.13,0,0,1,253.62,271.29Z" transform="translate(-4.25 -15.01)"/></g></g><g id="Capa_3" data-name="Capa 3"><path class="cls-1" d="M372.63,213.79c-75.71,0-137.29,61.59-137.29,137.29s61.58,137.29,137.29,137.29,137.29-61.59,137.29-137.29S448.33,213.79,372.63,213.79Zm0,256.28a119,119,0,1,1,119-119A119.13,119.13,0,0,1,372.63,470.07Z" transform="translate(-4.25 -15.01)"/><path class="cls-1" d="M438.56,315l-2.3-6-4,5c-.13.16-12.89,15.7-29.68,18.1-3.19.46-6.17,1.05-9,1.71.79-13.05-4.54-25.51-15.86-37.1l-4.47-4.57-1.75,6.16c0,.13-3.9,13.42-13.71,19.4-10.74,6.58-17.59,13.85-20.89,22.21a32.61,32.61,0,0,0-.23,24.76,22.09,22.09,0,0,0,12,12.09,15.32,15.32,0,0,0,1.62.53,33.71,33.71,0,0,0,1,11c-2,.18-3.91.26-5.7.26a47,47,0,0,1-14.48-2l-2.55,7A53.27,53.27,0,0,0,345.49,396a72.57,72.57,0,0,0,8.59-.54,27.78,27.78,0,0,0,4.44,5.85,30.62,30.62,0,0,0,22.17,8.15,58,58,0,0,0,34.47-12.35l1.08-.85C426.43,388.24,457.4,364,438.56,315Zm-87.11,54.91-.06,0a14.67,14.67,0,0,1-8-8.16,25.14,25.14,0,0,1,.32-19.09c2.69-6.83,8.52-12.91,17.86-18.62a40.38,40.38,0,0,0,14.7-17.74,38.11,38.11,0,0,1,9.52,29.64,54.77,54.77,0,0,0-22,12.94A46.94,46.94,0,0,0,351.45,369.91Zm60.24,20.46-1.11.88c-15.07,11.93-37.38,14.21-46.81,4.78a20.48,20.48,0,0,1-1.74-2c15.17-3.46,33.65-12.39,52.64-32.9l-5.44-5c-18.56,20.06-36.41,28.26-50.67,31.13a26.36,26.36,0,0,1-.88-10.67A38.15,38.15,0,0,1,369,354.1c7.63-7.64,18.95-12.44,34.59-14.67a57.36,57.36,0,0,0,30-16.12C446.2,363.34,421.32,382.83,411.69,390.37Z" transform="translate(-4.25 -15.01)"/><path class="cls-1" d="M414,350.68l5.66,4.78c1.58-1.88,3.17-3.85,4.75-5.9L418.56,345C417.05,347,415.53,348.88,414,350.68Z" transform="translate(-4.25 -15.01)"/></g><g id="Capa_2" data-name="Capa 2"><path class="cls-1" d="M139.12,344.69a9.43,9.43,0,0,1,0-18.85c3.34,0,6.87,1.7,10.2,4.93a9.43,9.43,0,0,0,13.11-13.55,36.39,36.39,0,0,0-13.88-8.68v-11a9.43,9.43,0,1,0-18.85,0v11.05a28.28,28.28,0,0,0,9.42,54.94,9.43,9.43,0,1,1,0,18.85c-4,0-8.37-2.53-12.24-7.13a9.43,9.43,0,0,0-14.43,12.13,39.1,39.1,0,0,0,17.25,12.28v11a9.43,9.43,0,1,0,18.85,0V399.63a28.28,28.28,0,0,0-9.43-54.94Z" transform="translate(-4.25 -15.01)"/><path class="cls-1" d="M141.54,216.83c-75.7,0-137.29,61.59-137.29,137.29S65.84,491.41,141.54,491.41s137.29-61.59,137.29-137.29S217.24,216.83,141.54,216.83Zm0,256.28a119,119,0,1,1,119-119A119.12,119.12,0,0,1,141.54,473.11Z" transform="translate(-4.25 -15.01)"/></g></svg>