<svg id="Capa_7" data-name="Capa 7" xmlns="http://www.w3.org/2000/svg" viewBox="0 0 511.81 511.81"><defs><style>.cls-1{fill:#fff;}</style></defs><path class="cls-1" d="M506.62,110.69,307.29,1.23a10,10,0,0,0-9.62,0L222.54,42.49a9.82,9.82,0,0,0-4.29,2.36L98.34,110.69a10,10,0,0,0-5.18,8.76V251.83A133.17,133.17,0,0,0,13.49,437.18a10,10,0,0,0,18-8.78,113,113,0,1,1,52,52,10,10,0,1,0-8.78,18,133.27,133.27,0,0,0,180-65.39l43.07,23.65a9.95,9.95,0,0,0,9.62,0L506.62,347.12a10,10,0,0,0,5.19-8.76V268.89a10,10,0,1,0-20,0v63.55L312.51,430.9V234.8l59.18-32.49v51.51a10,10,0,0,0,14.81,8.76l42.72-23.51a10,10,0,0,0,5.17-8.76V167.87l57.43-31.53v52.58a10,10,0,1,0,20,0V119.45A10,10,0,0,0,506.62,110.69ZM302.48,21.4,481,119.45l-56.32,30.93-178.57-98Zm0,196.1-178.56-98,58.39-32.07,178.57,98.05ZM381.64,174,203.08,76l22.3-12.25L404,161.78ZM227.08,284.73a132.14,132.14,0,0,0-94.05-39,135.05,135.05,0,0,0-19.88,1.47V136.34l179.37,98.5v196.1l-31.13-17.1A133.81,133.81,0,0,0,266,378.78,132.14,132.14,0,0,0,227.08,284.73ZM414.4,224.4l-22.72,12.51V191.33l22.72-12.48Z" transform="translate(0 0)"/><path class="cls-1" d="M289,251a1.54,1.54,0,1,0,1.09,2.62,1.53,1.53,0,0,0,0-2.17A1.54,1.54,0,0,0,289,251Z" transform="translate(0 0)"/><path class="cls-1" d="M114.77,381.93a6.8,6.8,0,0,0,4.81-11.6l-4.71-4.71H155A17.67,17.67,0,1,1,155,401h-23.8a6.8,6.8,0,0,0,0,13.6H155A31.27,31.27,0,0,0,155,352H114.87l4.71-4.71A6.8,6.8,0,1,0,110,337.7L93.65,354a6.81,6.81,0,0,0,0,9.62L110,379.94A6.74,6.74,0,0,0,114.77,381.93Z" transform="translate(0 0)"/><path class="cls-1" d="M218.82,290.54a1.54,1.54,0,0,1-1.18-.55h0a1.53,1.53,0,0,1,.19-2.17,1.54,1.54,0,0,1,2,2.36A1.51,1.51,0,0,1,218.82,290.54Z" transform="translate(0 0)"/></svg>