<svg id="Capa_6" data-name="Capa 6" xmlns="http://www.w3.org/2000/svg" viewBox="0 0 489 512"><defs><style>.cls-1{fill:#fff;}</style></defs><path class="cls-1" d="M120.27,345.49c-.1.06-10,5.32-21.3,5.32a50.42,50.42,0,0,1-21.32-5.33,7.5,7.5,0,0,0-7.21,13.16A65.28,65.28,0,0,0,99,365.82a65.35,65.35,0,0,0,28.54-7.18,7.51,7.51,0,0,0-7.24-13.15Z" transform="translate(-7.47)"/><path class="cls-1" d="M92.15,320.47a7.5,7.5,0,1,1-7.5-7.5A7.5,7.5,0,0,1,92.15,320.47Z" transform="translate(-7.47)"/><path class="cls-1" d="M120.79,320.47a7.5,7.5,0,1,1-7.5-7.5A7.5,7.5,0,0,1,120.79,320.47Z" transform="translate(-7.47)"/><path class="cls-1" d="M486.14,432.23a7.5,7.5,0,0,0-13.3,6.93,75.63,75.63,0,0,1,8.63,35.34v.12A22.41,22.41,0,0,1,459.09,497H350.85a22.38,22.38,0,0,1-12.37-3.74,37.15,37.15,0,0,0,5-18.64v-.12A91.11,91.11,0,0,0,336.7,440a76.52,76.52,0,0,1,118.17-23.45,7.5,7.5,0,0,0,9.8-11.36,91.42,91.42,0,0,0-27.31-16.22,62.49,62.49,0,1,0-64.76,0,91.83,91.83,0,0,0-44.15,35.38,92,92,0,0,0-44.08-35.4,62.51,62.51,0,1,0-64.79,0,92,92,0,0,0-44.09,35.41,91.65,91.65,0,0,0-44.09-35.43,62.5,62.5,0,1,0-64.84,0A91.19,91.19,0,0,0,35.06,409a7.5,7.5,0,1,0,10.48,10.73A76.5,76.5,0,0,1,167.24,440a91.11,91.11,0,0,0-6.77,34.54v.12a37.16,37.16,0,0,0,5,18.64A22.44,22.44,0,0,1,153.09,497H44.85a22.41,22.41,0,0,1-22.38-22.38v-.12a76,76,0,0,1,6.26-30.35A7.5,7.5,0,0,0,15,438.2a90.82,90.82,0,0,0-7.49,36.3v.12A37.42,37.42,0,0,0,44.85,512H153.09a37.38,37.38,0,0,0,22.39-7.46A37.15,37.15,0,0,0,197.85,512H306.09a37.12,37.12,0,0,0,22.38-7.46A37.35,37.35,0,0,0,350.85,512H459.09a37.42,37.42,0,0,0,37.38-37.38v-.12A91.7,91.7,0,0,0,486.14,432.23ZM357.47,335.5A47.5,47.5,0,1,1,405,383,47.56,47.56,0,0,1,357.47,335.5Zm-306,0A47.5,47.5,0,1,1,99,383,47.56,47.56,0,0,1,51.47,335.5Zm153,0A47.5,47.5,0,1,1,252,383,47.56,47.56,0,0,1,204.47,335.5ZM197.85,497a22.41,22.41,0,0,1-22.38-22.38v-.12a76.5,76.5,0,0,1,153,0v.12A22.41,22.41,0,0,1,306.09,497Z" transform="translate(-7.47)"/><path class="cls-1" d="M426.27,345.49c-.1.06-10,5.32-21.3,5.32a50.42,50.42,0,0,1-21.32-5.33,7.5,7.5,0,0,0-7.21,13.16,60.29,60.29,0,0,0,57.07,0,7.51,7.51,0,0,0-7.24-13.15Z" transform="translate(-7.47)"/><path class="cls-1" d="M398.15,320.47a7.5,7.5,0,1,1-7.5-7.5A7.5,7.5,0,0,1,398.15,320.47Z" transform="translate(-7.47)"/><path class="cls-1" d="M426.79,320.47a7.5,7.5,0,1,1-7.5-7.5A7.5,7.5,0,0,1,426.79,320.47Z" transform="translate(-7.47)"/><path class="cls-1" d="M273.27,345.49c-.1.06-10,5.32-21.3,5.32a50.42,50.42,0,0,1-21.32-5.33,7.5,7.5,0,0,0-7.21,13.16A65.28,65.28,0,0,0,252,365.82a65.35,65.35,0,0,0,28.54-7.18,7.51,7.51,0,0,0-7.24-13.15Z" transform="translate(-7.47)"/><path class="cls-1" d="M245.15,320.47a7.5,7.5,0,1,1-7.5-7.5A7.5,7.5,0,0,1,245.15,320.47Z" transform="translate(-7.47)"/><path class="cls-1" d="M273.79,320.47a7.5,7.5,0,1,1-7.5-7.5A7.5,7.5,0,0,1,273.79,320.47Z" transform="translate(-7.47)"/><path class="cls-1" d="M302,105.26H408a7.5,7.5,0,0,0,0-15H302a7.5,7.5,0,0,0,0,15Z" transform="translate(-7.47)"/><path class="cls-1" d="M302,135.26H408a7.5,7.5,0,1,0,0-15H302a7.5,7.5,0,0,0,0,15Z" transform="translate(-7.47)"/><path class="cls-1" d="M302,165.26H408a7.5,7.5,0,0,0,0-15H302a7.5,7.5,0,0,0,0,15Z" transform="translate(-7.47)"/><path class="cls-1" d="M81.35,208.25h35.91c2.32,19.53,9.29,33.8,20.75,42.5,9.5,7.2,20.39,9.24,29.69,9.24a70.71,70.71,0,0,0,14.79-1.62,8.63,8.63,0,0,0-.31-16.94c-4.56-.82-7.67-2.79-9.79-6.2-4.47-7.22-3.54-19.24-2.11-27h46.31a51.08,51.08,0,0,0,22.75-5.32,51.76,51.76,0,0,0,48,33.08h46.31c1.44,7.74,2.36,19.76-2.11,27-2.11,3.42-5.23,5.39-9.8,6.21a8.64,8.64,0,0,0-.3,16.94,70.71,70.71,0,0,0,14.79,1.62c9.3,0,20.2-2,29.7-9.25,11.46-8.7,18.42-23,20.73-42.49h35.92A51.42,51.42,0,0,0,474,184.67V79.1a51.42,51.42,0,0,0-51.38-51.34H287.35a51.63,51.63,0,0,0-22.75,5.31A51.46,51.46,0,0,0,216.6,0H124a7.5,7.5,0,0,0,0,15H216.6A36.4,36.4,0,0,1,253,51.34V156.91a36.4,36.4,0,0,1-36.37,36.34H164.33a7.5,7.5,0,0,0-7.19,5.38c-.83,2.8-7.79,27.84,2.48,44.46.27.45.56.89.86,1.32a30.39,30.39,0,0,1-13.4-5.62c-9.16-6.94-14.36-19.89-15.46-38.48a7.51,7.51,0,0,0-7.49-7.06H81.35A36.4,36.4,0,0,1,45,156.91V51.34A36.4,36.4,0,0,1,81.35,15H92A7.5,7.5,0,0,0,92,0H81.35A51.42,51.42,0,0,0,30,51.34V156.91A51.42,51.42,0,0,0,81.35,208.25ZM268,156.91V51.34q0-1.48-.09-2.94a35.93,35.93,0,0,1,19.47-5.64H422.59A36.4,36.4,0,0,1,459,79.1V184.67A36.4,36.4,0,0,1,422.59,221H379.81a7.51,7.51,0,0,0-7.49,7.06c-1.1,18.59-6.29,31.54-15.45,38.48a30.47,30.47,0,0,1-13.41,5.62c.3-.43.59-.87.86-1.32,10.27-16.62,3.31-41.66,2.48-44.46a7.49,7.49,0,0,0-7.19-5.38H287.35a36.6,36.6,0,0,1-35.18-27.1A51.17,51.17,0,0,0,268,156.91Z" transform="translate(-7.47)"/><path class="cls-1" d="M79.47,89.4c0,15.75,8.18,46.5,63,75.49a14,14,0,0,0,13,0c54.8-29,63-59.74,63-75.49,0-24.06-16.91-42.9-38.5-42.9a45.71,45.71,0,0,0-31,12.22A45.69,45.69,0,0,0,118,46.5C96.38,46.5,79.47,65.34,79.47,89.4ZM118,61.5A30.6,30.6,0,0,1,140.08,71a12.51,12.51,0,0,0,17.78,0A30.6,30.6,0,0,1,180,61.5c15.27,0,23.5,14.38,23.5,27.9,0,21-19.85,43.53-54.5,62-34.64-18.43-54.5-41-54.5-62C94.47,75.88,102.71,61.5,118,61.5Z" transform="translate(-7.47)"/></svg>