<svg id="Capa_5" data-name="Capa 5" xmlns="http://www.w3.org/2000/svg" viewBox="0 0 512 512"><defs><style>.cls-1{fill:#fff;}</style></defs><path class="cls-1" d="M497,482H452V180h45a15,15,0,0,0,12.29-23.6l-105-150a15,15,0,0,0-24.58,0l-105,150A15,15,0,0,0,287,180h45V482H302V255a15,15,0,0,0-15-15H195a15,15,0,0,0-15,15V482H150V345a15,15,0,0,0-15-15H45a15,15,0,0,0-15,15V482H15a15,15,0,0,0,0,30H497a15,15,0,0,0,0-30Zm-377,0H60V360h60Zm152,0H210V270h62ZM422,165V482H362V165a15,15,0,0,0-15-15H315.81L392,41.16,468.19,150H437A15,15,0,0,0,422,165Z" transform="translate(0 0)"/></svg>