<svg id="Capa_8" data-name="Capa 8" xmlns="http://www.w3.org/2000/svg" viewBox="0 0 80.73 79.12"><defs><style>.cls-1{fill:#fff;}</style></defs><path class="cls-1" d="M282.59,258.86a1.17,1.17,0,0,0-1.17,1.18,1.49,1.49,0,1,1-3,0,1.18,1.18,0,1,0-2.35,0,3.84,3.84,0,1,0,7.68,0A1.18,1.18,0,0,0,282.59,258.86Z" transform="translate(-215.98 -217)"/><path class="cls-1" d="M293.62,259.05,290.31,258a1.42,1.42,0,0,1-.89-.91,21.28,21.28,0,0,0-3.12-6.18,24.18,24.18,0,0,0-2.09-2.47,29.24,29.24,0,0,0,.72-6.65c-.05-3-.65-4.75-1.83-5.37-.64-.33-2.57-1.35-13.05,3.45a4.48,4.48,0,0,0-.7.42c-.71-.19-1.43-.37-2.15-.53l-.27,0a16.15,16.15,0,0,0,1.44-6,1.18,1.18,0,1,0-2.35-.11,13.63,13.63,0,0,1-4,9.06,13.78,13.78,0,0,1-4.95,3.17,34.06,34.06,0,0,0-9.46,0A13.69,13.69,0,1,1,262,223.36a14,14,0,0,1,2.55,3.52,1.17,1.17,0,0,0,1.57.52,1.18,1.18,0,0,0,.53-1.58,16.15,16.15,0,0,0-3-4.12,16,16,0,1,0-19.85,24.93h0c-.73.19-1.46.4-2.17.64a1.17,1.17,0,0,0,.74,2.23,31.55,31.55,0,0,1,19.87,0,1.26,1.26,0,0,0,.38.06,1.18,1.18,0,0,0,.37-2.29c-.72-.24-1.44-.45-2.17-.64h0a16.64,16.64,0,0,0,2.83-2.25,16.31,16.31,0,0,0,2-2.52l1,.2,1.26.29a.75.75,0,0,0,0,.16,14,14,0,0,0,.11,7.14,8.49,8.49,0,0,0,3.11,4.38,9.93,9.93,0,0,0,5.79,1.84,7.74,7.74,0,0,0,3.74-.87,7.14,7.14,0,0,0,2.77-3.92c.34.39.66.8,1,1.21a19.05,19.05,0,0,1,2.78,5.51,3.76,3.76,0,0,0,2.42,2.43l3.31,1.06a2.1,2.1,0,0,1,1.45,2v5.48a2.1,2.1,0,0,1-1.45,2l-5.33,1.71a3.6,3.6,0,0,0-2,1.65,23.46,23.46,0,0,1-9.79,8.89,1.85,1.85,0,0,0-1,1.3l-1.71,9a.52.52,0,0,1-.52.43H267a.52.52,0,0,1-.52-.43l-.95-5a1.84,1.84,0,0,0-2.1-1.48,49.28,49.28,0,0,1-7.32.54,47.31,47.31,0,0,1-5.38-.3,1.86,1.86,0,0,0-2,1.49l-.9,4.75a.52.52,0,0,1-.51.43h-5.55a.53.53,0,0,1-.52-.44l-1.64-8.53a1.86,1.86,0,0,0-.95-1.28c-7.5-4-11.46-10.69-11.46-19.34A22.52,22.52,0,0,1,230,252.7a20.59,20.59,0,0,1,7.64-7.46,1.16,1.16,0,0,0,.42-1.6,1.17,1.17,0,0,0-1.6-.43,22.4,22.4,0,0,0-11.35,16.71h0l-.34,0a5.84,5.84,0,0,0-.43-2.34,4.82,4.82,0,0,0-3.57-3.12,3.24,3.24,0,0,0-3.05,1.37,3.09,3.09,0,0,0-.59,3.37c.59,1.22,2.11,2.08,4.64,2.63l-.23.31a5.76,5.76,0,0,1-4.39,2.32,1.23,1.23,0,0,0-1.2,1.23h0a1.23,1.23,0,0,0,1.17,1.23h.27c1.44,0,3.76-.53,6-3.33a6.32,6.32,0,0,0,.86-1.38l.64.06h0c0,.64-.06,1.29-.06,1.94a24.23,24.23,0,0,0,3.47,13,23.77,23.77,0,0,0,9,8.33l1.6,8.29a2.89,2.89,0,0,0,2.83,2.35h5.55a2.87,2.87,0,0,0,2.82-2.35l.82-4.29a49,49,0,0,0,5.19.27,52,52,0,0,0,7.2-.5l.86,4.52a2.87,2.87,0,0,0,2.83,2.35h5.54a2.89,2.89,0,0,0,2.83-2.35l1.66-8.79a25.61,25.61,0,0,0,10.52-9.7,1.26,1.26,0,0,1,.71-.58l5.33-1.71a4.42,4.42,0,0,0,3.09-4.23v-5.48A4.43,4.43,0,0,0,293.62,259.05Zm-11.22-14c-.45,3.87-1.66,7.18-2.88,7.87a7.23,7.23,0,0,1-7-.82c-2.4-1.76-3.2-4.93-2.31-9.15h0a1.43,1.43,0,0,1,.8-1c5.89-2.69,9.28-3.57,10.54-3.57a1.4,1.4,0,0,1,.42.05C282.36,238.9,282.86,241.19,282.4,245.09Zm-63.13,13c-.12-.26.17-.7.35-.94a1,1,0,0,1,.76-.46h.11a2.58,2.58,0,0,1,1.7,1.67,3.38,3.38,0,0,1,.25,1.1C220.81,259.19,219.55,258.7,219.27,258.14Z" transform="translate(-215.98 -217)"/><path class="cls-1" d="M253.49,231.69v-4.2c1.45.1,2,.76,2.48.76s.92-.79.92-1.18c0-1-2-1.45-3.4-1.49V225c0-.25-.31-.48-.62-.48a.55.55,0,0,0-.6.48v.6c-2,.21-3.94,1.24-3.94,3.85s2.07,3.4,3.94,4.06v4.87c-2.12-.17-2.67-1.62-3.36-1.62-.52,0-.95.69-.95,1.19,0,1,1.74,2.4,4.31,2.44h0v.64a.55.55,0,0,0,.6.48c.31,0,.62-.23.62-.48v-.7a4,4,0,0,0,3.77-4.27C257.26,233.26,255.29,232.35,253.49,231.69Zm-1.1-.39c-1.1-.42-2-.85-2-2s.83-1.6,2-1.74Zm1,7.06V234a2.41,2.41,0,0,1,1.83,2.32A2,2,0,0,1,253.36,238.36Z" transform="translate(-215.98 -217)"/></svg>