<svg id="Capa_4" data-name="Capa 4" xmlns="http://www.w3.org/2000/svg" viewBox="0 0 508.19 465.01"><defs><style>.cls-1{fill:#fff;}</style></defs><path class="cls-1" d="M347.92,97.69V72.34h10.45a10.2,10.2,0,0,0,10.2-10.2V28a10.2,10.2,0,0,0-10.2-10.2H274.22A10.2,10.2,0,0,0,264,28V62.14a10.2,10.2,0,0,0,10.2,10.2h10.45V97.69A194.45,194.45,0,0,0,134.15,222.62H47A10.2,10.2,0,0,0,47,243h81a192.94,192.94,0,0,0-5.24,35.7H12.2a10.2,10.2,0,1,0,0,20.39H122.73A193,193,0,0,0,128,334.8H47a10.2,10.2,0,0,0,0,20.39h87.18C170.74,455.79,282,507.68,382.57,471.08S535.05,323.27,498.46,222.67A193.83,193.83,0,0,0,347.92,97.69ZM284.41,38.17h63.77V51.92H284.41Zm20.65,34.15h22.47V95.4c-3.72-.21-7.46-.35-11.24-.35s-7.51.14-11.23.35Zm11.23,390.05A173.45,173.45,0,1,1,489.73,288.9,173.43,173.43,0,0,1,316.29,462.37Z" transform="translate(-2 -17.8)"/><path class="cls-1" d="M421,185.41a8.75,8.75,0,0,0-.58-.68,7.56,7.56,0,0,0-.69-.58,147,147,0,0,0-207,0,7.22,7.22,0,0,0-.68.58c-.22.23-.37.45-.56.68a147,147,0,0,0,0,207c.19.23.36.48.58.7s.48.38.71.59a147,147,0,0,0,206.94,0,7.93,7.93,0,0,0,.71-.59c.22-.22.38-.47.58-.7a147,147,0,0,0,0-207Zm14.5,113.69h7.27a126.33,126.33,0,0,1-29.88,72l-5.1-5.1a10.2,10.2,0,0,0-14.42,14.42l5.1,5.1a126.38,126.38,0,0,1-72,29.87v-7.26a10.2,10.2,0,0,0-20.39,0v7.26a126.35,126.35,0,0,1-72-29.87l5.09-5.1A10.2,10.2,0,0,0,224.79,366l-5.1,5.1a126.33,126.33,0,0,1-29.88-72h7.26a10.2,10.2,0,1,0,0-20.39h-7.26a126.38,126.38,0,0,1,29.87-72l5.1,5.1a10.2,10.2,0,0,0,14.42-14.42l-5.1-5.1a126.32,126.32,0,0,1,72-29.87v7.26a10.2,10.2,0,1,0,20.39,0v-7.26a126.32,126.32,0,0,1,72,29.87l-5.1,5.1a10.2,10.2,0,0,0,14.42,14.42l5.1-5.1a126.32,126.32,0,0,1,29.87,72h-7.25a10.2,10.2,0,0,0,0,20.39Z" transform="translate(-2 -17.8)"/><path class="cls-1" d="M326.49,284.54V215.06a10.2,10.2,0,1,0-20.39,0V288.9a10.21,10.21,0,0,0,3.15,7.38l35,33.44A10.2,10.2,0,0,0,358.36,315Z" transform="translate(-2 -17.8)"/></svg>