<svg id="Capa_3" data-name="Capa 3" xmlns="http://www.w3.org/2000/svg" viewBox="0 0 174.3 146.19"><defs><style>.cls-1{fill:#00aed6;}</style></defs><path class="cls-1" d="M323.63,224.37a14.07,14.07,0,0,0-13.77,11.25h-27l4.22-5.62a28.11,28.11,0,1,0-45,0l4.22,5.62H191.21a14.05,14.05,0,0,0-27.82,2.81v78.72a14.06,14.06,0,0,0,14.05,14.05H323.63a14.06,14.06,0,0,0,14.05-14.05V238.43A14.07,14.07,0,0,0,323.63,224.37Zm-14.06,78.72H298.33V291.85h11.24Zm0-16.87H298.33a5.64,5.64,0,0,0-5.63,5.63v11.24a5.63,5.63,0,0,0,5.63,5.62h11.24v5.63H298.33A5.63,5.63,0,0,0,292.7,320v5.62h-5.62V294.66a8.45,8.45,0,0,0-8.43-8.44h-25.3a8.45,8.45,0,0,0-8.44,8.44v30.92h-5.62V289a2.81,2.81,0,0,0-2.81-2.81H216.8A2.81,2.81,0,0,0,214,289v2.22a64,64,0,0,1-10,34.33h-7.07A63.89,63.89,0,0,0,208.37,289a2.81,2.81,0,0,0-2.82-2.81H191.5V280.6h8.43a8.45,8.45,0,0,0,8.44-8.43v-8a5.59,5.59,0,0,1,3.84-5.33L226,254.27a11.26,11.26,0,0,0,7.69-10.67v-2.36h5.62V246a14,14,0,0,1-9.61,13.34l-11.85,3.94a5.62,5.62,0,0,0-3.84,5.34v3.6a8.44,8.44,0,0,0,8.43,8.43h56.23a8.44,8.44,0,0,0,8.43-8.43V241.24h5.62v30.93a8.45,8.45,0,0,0,8.44,8.43h8.43Zm-28.11,39.36H250.53V294.66a2.81,2.81,0,0,1,2.82-2.81h25.3a2.81,2.81,0,0,1,2.81,2.81Zm-47.79,0H210.58a69.43,69.43,0,0,0,9-33.73h14.06ZM191.5,275V241.24H228v2.36a5.61,5.61,0,0,1-3.84,5.33l-13.77,4.59a11.24,11.24,0,0,0-7.69,10.67v8a2.81,2.81,0,0,1-2.81,2.81Zm118.07,0h-8.43a2.81,2.81,0,0,1-2.81-2.81V241.24h11.24Zm-45-84.34a22.49,22.49,0,0,1,18,36l-18,24-18-24a22.49,22.49,0,0,1,18-36ZM273,255.3c0,3.05-3.87,5.62-8.44,5.62s-8.43-2.57-8.43-5.62a4.79,4.79,0,0,1,2.16-3.68l4,5.37a2.82,2.82,0,0,0,4.5,0l4-5.37A4.8,4.8,0,0,1,273,255.3Zm-18.1-8.19a10.32,10.32,0,0,0-4.4,8.19c0,6.2,6.31,11.24,14.06,11.24s14.06-5,14.06-11.24a10.32,10.32,0,0,0-4.4-8.19l4.4-5.87h2.81v30.93a2.81,2.81,0,0,1-2.81,2.81H222.42a2.81,2.81,0,0,1-2.81-2.81v-3.6l11.85-3.95A19.65,19.65,0,0,0,244.91,246v-4.71h5.62ZM169,238.43a8.44,8.44,0,0,1,16.87,0v67.48a14,14,0,0,0-16.87,0Zm0,78.72a8.44,8.44,0,1,1,16.87,0,2.81,2.81,0,0,0,5.62,0v-25.3h11.18a58.24,58.24,0,0,1-10.85,31.24l-1.78,2.49H177.44a8.44,8.44,0,0,1-8.43-8.43Zm154.62,8.43h-25.3V320h14.05a2.81,2.81,0,0,0,2.81-2.81,8.44,8.44,0,1,1,8.44,8.43Zm8.43-19.67a14,14,0,0,0-16.87,0V238.43a8.44,8.44,0,0,1,16.87,0Z" transform="translate(-163.39 -185.02)"/><path class="cls-1" d="M264.59,224.37a14.06,14.06,0,1,0-14.06-14.05A14.07,14.07,0,0,0,264.59,224.37Zm0-22.49a8.44,8.44,0,1,1-8.43,8.44A8.45,8.45,0,0,1,264.59,201.88Z" transform="translate(-163.39 -185.02)"/></svg>