<svg id="Capa_5" data-name="Capa 5" xmlns="http://www.w3.org/2000/svg" viewBox="0 0 137.74 137.76"><defs><style>.cls-1{fill:#e5a025;}</style></defs><path class="cls-1" d="M326.09,240.6a1.36,1.36,0,0,0-.06-.29.9.9,0,0,0-.06-.22,1.62,1.62,0,0,0-.1-.18l-.06-.1-.13-.23-.15-.16a1.55,1.55,0,0,0-.23-.21,1.5,1.5,0,0,0-.23-.2l-3.55-2.22a3.11,3.11,0,0,0,0-.43V218a2,2,0,0,0,0-.26,2.7,2.7,0,0,0-.08-.41.1.1,0,0,0,0-.07,1.74,1.74,0,0,0-.1-.19,1.63,1.63,0,0,0-.19-.34,2.11,2.11,0,0,0-.19-.23l-.26-.26-.26-.17c-.07,0-.12-.08-.18-.11l-.14,0-.31-.09a1.49,1.49,0,0,0-.36-.05c-.06,0-.11,0-.16,0H293.31a36.67,36.67,0,0,0-72.06,0h-26l-.15,0a1.58,1.58,0,0,0-.38.05l-.3.09s-.1,0-.14,0-.12.08-.18.11l-.26.17-.26.26a1.37,1.37,0,0,0-.19.23,1.63,1.63,0,0,0-.19.34l-.11.19a.17.17,0,0,1,0,.07,1.86,1.86,0,0,0-.08.41,2,2,0,0,0,0,.26v18.41a2,2,0,0,0,0,.42L189.47,239l-.23.21-.23.2a2.09,2.09,0,0,1-.14.17,1.71,1.71,0,0,0-.13.23l-.06.1a.77.77,0,0,0-.1.18.83.83,0,0,0-.06.21c0,.1-.05.2-.07.29l-.06.31v80.4a2.29,2.29,0,0,0,2.3,2.29H323.84a2.29,2.29,0,0,0,2.3-2.29V240.9C326.13,240.8,326.11,240.7,326.09,240.6Zm-13.18-20.31-8.9,7.42a2.29,2.29,0,0,0,.25,3.71l11.58,7.23h-22a36.32,36.32,0,0,0-6.25-18.36Zm4,2.6v11.05l-7.57-4.74Zm-35.07-2.6a31.71,31.71,0,0,1,7.39,18.36h-64a31.71,31.71,0,0,1,7.39-18.36Zm-44.44-4.59c.19-.15.35-.32.54-.46a32.15,32.15,0,0,1,38.57,0c.19.14.36.31.55.46Zm19.83-25.26a32.19,32.19,0,0,1,31.37,25.26h-4.78a36.3,36.3,0,0,0-48.63-4.14,38.11,38.11,0,0,0-4.56,4.14H225.9A32.18,32.18,0,0,1,257.27,190.44Zm-30.36,29.85a36.21,36.21,0,0,0-6.24,18.36h-22l11.57-7.23a2.29,2.29,0,0,0,.73-3.17,2.2,2.2,0,0,0-.47-.54l-8.91-7.42Zm-29.33,2.6,7.57,6.31-7.57,4.74Zm124,96.11H193V243.25H321.55Z" transform="translate(-188.39 -185.84)"/><path class="cls-1" d="M231.93,305.52a34.26,34.26,0,0,0,48.41,2.26c.81-.74,1.59-1.51,2.33-2.33a2.4,2.4,0,0,0,.43-.47,34.23,34.23,0,0,0-.33-45.76h0a1.54,1.54,0,0,0-.17-.19,34.27,34.27,0,0,0-48.41-2.26c-.79.72-1.54,1.47-2.25,2.26a1.51,1.51,0,0,0-.21.23,34.22,34.22,0,0,0,0,46.07A1.54,1.54,0,0,0,231.93,305.52ZM268.26,310a32.56,32.56,0,0,0,3.91-7.43h0a40.13,40.13,0,0,1,5.11,1.78A30,30,0,0,1,268.26,310Zm12.35-9.18a42.5,42.5,0,0,0-7-2.62,59.72,59.72,0,0,0,2-13.62H287A29.63,29.63,0,0,1,280.61,300.81ZM287,280H275.57a59.72,59.72,0,0,0-2-13.63,41.62,41.62,0,0,0,7-2.62A29.63,29.63,0,0,1,287,280Zm-14.81-18a33.21,33.21,0,0,0-3.92-7.43,29.83,29.83,0,0,1,9,5.66A40.08,40.08,0,0,1,272.18,262Zm-12.62-9.07c3,1.22,6,4.77,8.13,10.08a59.92,59.92,0,0,1-8.13.85Zm0,15.53a63.21,63.21,0,0,0,9.61-1.06A55.3,55.3,0,0,1,271,280H259.56V268.44Zm0,16.13H271a54.66,54.66,0,0,1-1.81,12.59,64.5,64.5,0,0,0-9.61-1.05V284.57Zm0,16.14a58.35,58.35,0,0,1,8.13.84c-2.16,5.32-5.1,8.87-8.13,10.08Zm-22.31,3.63a39.59,39.59,0,0,1,5.11-1.78h0a32.6,32.6,0,0,0,3.92,7.43A29.75,29.75,0,0,1,237.25,304.34ZM255,311.63c-3-1.21-6-4.76-8.13-10.08a58.51,58.51,0,0,1,8.13-.84Zm0-15.52a64.51,64.51,0,0,0-9.6,1.05,55.22,55.22,0,0,1-1.82-12.59H255ZM255,280H243.55a55.31,55.31,0,0,1,1.82-12.6,63.08,63.08,0,0,0,9.6,1.06Zm0-27.07v10.93a60.09,60.09,0,0,1-8.13-.85C249,257.68,251.94,254.13,255,252.91Zm-8.69,1.64a32.81,32.81,0,0,0-3.92,7.43,40.22,40.22,0,0,1-5.12-1.77A29.76,29.76,0,0,1,246.28,254.55Zm-12.36,9.18a42,42,0,0,0,7,2.62A59.72,59.72,0,0,0,239,280H227.54A29.63,29.63,0,0,1,233.92,263.73Zm5,20.84a59.72,59.72,0,0,0,2,13.62,42.84,42.84,0,0,0-7,2.62,29.63,29.63,0,0,1-6.38-16.24Z" transform="translate(-188.39 -185.84)"/></svg>