<svg id="Capa_4" data-name="Capa 4" xmlns="http://www.w3.org/2000/svg" viewBox="0 0 138.96 139.1"><defs><style>.cls-1{fill:#d17474;}</style></defs><g id="Icons"><path class="cls-1" d="M256.36,324.4a2,2,0,0,1-.59-.09l-54-17.18a2,2,0,0,1-1.39-1.89V264.13a2,2,0,1,1,4,0v39.65l50,15.92V262.52l-52.61-16.74A2,2,0,1,1,203,242h0l54,17.18a2,2,0,0,1,1.39,1.89v61.35A2,2,0,0,1,256.36,324.4Z" transform="translate(-186.89 -185.3)"/><path class="cls-1" d="M301.27,310.12a2,2,0,0,1-.59-3.89l7.69-2.45V264.13a2,2,0,0,1,4,0v41.1a2,2,0,0,1-1.39,1.89l-9.08,2.9A2,2,0,0,1,301.27,310.12Z" transform="translate(-186.89 -185.3)"/><path class="cls-1" d="M256.36,324.4a2,2,0,0,1-2-2V261.05a2,2,0,0,1,1.39-1.89l54-17.17a2,2,0,0,1,1.2,3.79l-52.61,16.73V319.7l10.09-3.21a2,2,0,1,1,1.2,3.78l-12.67,4A2.1,2.1,0,0,1,256.36,324.4Z" transform="translate(-186.89 -185.3)"/><path class="cls-1" d="M282.4,316.12a2,2,0,0,1-.6-3.88l5.52-1.77a2,2,0,0,1,1.22,3.77L283,316A1.87,1.87,0,0,1,282.4,316.12Z" transform="translate(-186.89 -185.3)"/><path class="cls-1" d="M269.86,279a2,2,0,0,1-1.52-.7l-13.49-15.95a2,2,0,0,1,.91-3.18l54-17.18a2,2,0,0,1,2.12.61l13.5,16a2,2,0,0,1-.23,2.8,1.94,1.94,0,0,1-.69.38l-54,17.18A2,2,0,0,1,269.86,279ZM259.8,262.05l10.72,12.67,49.89-15.87L309.7,246.19Z" transform="translate(-186.89 -185.3)"/><path class="cls-1" d="M242.87,279a2,2,0,0,1-.6-.09l-54-17.18a2,2,0,0,1-.91-3.18l13.49-16A2,2,0,0,1,203,242l54,17.18a2,2,0,0,1,1.3,2.49,2,2,0,0,1-.38.69l-13.5,15.95A2,2,0,0,1,242.87,279Zm-50.55-20.16,49.89,15.88,10.71-12.66L203,246.18Z" transform="translate(-186.89 -185.3)"/><path class="cls-1" d="M202.38,245.88a2,2,0,0,1-.66-3.87l39-13.62a2,2,0,0,1,1.31,3.76h0l-39,13.62A2.06,2.06,0,0,1,202.38,245.88Z" transform="translate(-186.89 -185.3)"/><path class="cls-1" d="M310.35,245.88a2.12,2.12,0,0,1-.66-.11l-39-13.62a2,2,0,0,1,1.31-3.76h0L311,242a2,2,0,0,1-.65,3.87Z" transform="translate(-186.89 -185.3)"/><path class="cls-1" d="M256.36,246.51a2,2,0,0,1-1.23-.43c-1.2-1-29.37-23.56-29.37-41.52A19,19,0,0,1,244.5,185.3a18.32,18.32,0,0,1,11.86,4.35,18.36,18.36,0,0,1,11.87-4.35A19,19,0,0,1,287,204.56c0,18-28.17,40.56-29.37,41.51A2,2,0,0,1,256.36,246.51ZM244.5,189.28a15,15,0,0,0-14.76,15.28c0,14.09,21.22,32.84,26.62,37.38,5.41-4.55,26.63-23.3,26.63-37.38a15,15,0,0,0-14.76-15.28,14.45,14.45,0,0,0-10.44,4.47,2,2,0,0,1-2.85,0A14.45,14.45,0,0,0,244.5,189.28Z" transform="translate(-186.89 -185.3)"/></g></svg>