<svg id="Capa_1" data-name="Capa 1" xmlns="http://www.w3.org/2000/svg" viewBox="0 0 139.35 139.35"><defs><style>.cls-1{fill:#6bb86f;}</style></defs><path class="cls-1" d="M317.93,199.31h-4.49v-2.25a6.75,6.75,0,0,0-6.74-6.74H282a4.5,4.5,0,0,0-4.49-4.5h-45a4.5,4.5,0,0,0-4.49,4.5H203.3a6.75,6.75,0,0,0-6.74,6.74v2.25h-4.49a6.75,6.75,0,0,0-6.75,6.74v24.73a9,9,0,0,0,6.75,8.67V307.2a6.75,6.75,0,0,0-6.75,6.74v9a2.25,2.25,0,0,0,2.25,2.25H322.43a2.25,2.25,0,0,0,2.25-2.25v-9a6.75,6.75,0,0,0-6.75-6.74V239.45a9,9,0,0,0,6.75-8.67V206.05A6.75,6.75,0,0,0,317.93,199.31Zm-11.23-4.5a2.25,2.25,0,0,1,2.24,2.25v2.25H282v-4.5Zm-74.18-4.49h45v18h-45Zm-31.46,6.74a2.25,2.25,0,0,1,2.24-2.25H228v4.5h-27Zm-9,6.74h36v4.5a4.49,4.49,0,0,0,4.49,4.49h45A4.49,4.49,0,0,0,282,208.3v-4.5h36a2.25,2.25,0,0,1,2.25,2.25v11.24H189.82V206.05A2.25,2.25,0,0,1,192.07,203.8Zm105.64,18h9v9a4.5,4.5,0,0,1-9,0Zm-13.49,0h9v9a4.5,4.5,0,0,1-9,0Zm-13.49,0h9v9a4.5,4.5,0,0,1-9,0Zm-13.48,0h9v9a4.5,4.5,0,0,1-9,0Zm-13.49,0h9v9a4.5,4.5,0,0,1-9,0Zm-13.48,0h9v9a4.5,4.5,0,0,1-9,0Zm-13.49,0h9v9a4.5,4.5,0,0,1-9,0Zm-13.49,0h9v9a4.5,4.5,0,0,1-9,0Zm-13.48,9v-9h9v9a4.5,4.5,0,0,1-9,0Zm6.74,27H259.5v31.46H196.56Zm62.94-4.5H196.56v-4.49H259.5Zm-62.94,40.46H259.5V307.2H196.56Zm123.62,20.23v6.74H189.82v-6.74a2.25,2.25,0,0,1,2.25-2.25H317.93A2.25,2.25,0,0,1,320.18,313.94Zm-15.73-60.69H273v-4.49h31.47ZM273,257.75h31.47V307.2H273Zm36,49.45V246.51a2.24,2.24,0,0,0-2.24-2.25h-36a2.24,2.24,0,0,0-2.24,2.25V307.2H264V246.51a2.25,2.25,0,0,0-2.25-2.25H196.56v-4.81a8.94,8.94,0,0,0,4.5-2.79,8.86,8.86,0,0,0,13.48,0,8.87,8.87,0,0,0,13.49,0,8.86,8.86,0,0,0,13.48,0,8.87,8.87,0,0,0,13.49,0,8.87,8.87,0,0,0,13.49,0,8.86,8.86,0,0,0,13.48,0,8.87,8.87,0,0,0,13.49,0,8.86,8.86,0,0,0,13.48,0,8.94,8.94,0,0,0,4.5,2.79V307.2Zm11.24-76.42a4.5,4.5,0,0,1-9,0v-9h9Z" transform="translate(-185.32 -185.82)"/><path class="cls-1" d="M204,280.88l15.73-15.74,3.18,3.18-15.73,15.73Z" transform="translate(-185.32 -185.82)"/><path class="cls-1" d="M224.18,280.88l15.73-15.73,3.18,3.18-15.74,15.73Z" transform="translate(-185.32 -185.82)"/><path class="cls-1" d="M266.24,192.57H243.76a6.74,6.74,0,1,0,0,13.48h22.48a6.74,6.74,0,0,0,0-13.48Zm0,9H243.76a2.25,2.25,0,0,1,0-4.5h22.48a2.25,2.25,0,0,1,0,4.5Z" transform="translate(-185.32 -185.82)"/><circle class="cls-1" cx="94.4" cy="92.15" r="4.5"/></svg>