<svg id="Capa_3" data-name="Capa 3" xmlns="http://www.w3.org/2000/svg" viewBox="0 0 275.61 38.96"><defs><style>.cls-1{fill:#2cbbaf;}.cls-2{fill:#473891;}</style></defs><path class="cls-1" d="M169.5,255.82a20.59,20.59,0,0,1-.71,5.54,17.24,17.24,0,0,1-2,4.62,66,66,0,0,0,6.75,2.2l-4.05,7.23c-1.44-.55-2.92-1.13-4.42-1.74s-3-1.25-4.52-1.93a25.38,25.38,0,0,1-7.13,2.6,42.55,42.55,0,0,1-8.84.86A40.25,40.25,0,0,1,134.12,274a23.19,23.19,0,0,1-7.92-3.68,16.52,16.52,0,0,1-5-6.07,20.7,20.7,0,0,1,0-16.75,16.52,16.52,0,0,1,5-6.07,23.19,23.19,0,0,1,7.92-3.68,43.85,43.85,0,0,1,20.79,0,22.88,22.88,0,0,1,7.86,3.68,16.49,16.49,0,0,1,5,6.07,19.15,19.15,0,0,1,1.74,8.37m-10.05,0a13.37,13.37,0,0,0-.66-4.11,8.82,8.82,0,0,0-2.33-3.68,12.09,12.09,0,0,0-4.57-2.65,22.42,22.42,0,0,0-7.36-1,25.89,25.89,0,0,0-5.28.47,15.7,15.7,0,0,0-3.94,1.3,10.7,10.7,0,0,0-2.79,1.94,9.47,9.47,0,0,0-1.79,2.38,9.62,9.62,0,0,0-.95,2.66,13.27,13.27,0,0,0-.28,2.71,13.61,13.61,0,0,0,.28,2.76,9.57,9.57,0,0,0,.95,2.67,9.25,9.25,0,0,0,1.79,2.37,10.9,10.9,0,0,0,2.79,1.92,16.57,16.57,0,0,0,3.94,1.28,25.89,25.89,0,0,0,5.28.47c1.07,0,2.07,0,3-.13a19.55,19.55,0,0,0,2.65-.43c-1.11-.57-2.17-1.15-3.2-1.73s-2-1.15-2.91-1.73l4-6.51a48.14,48.14,0,0,0,4.39,2.68c1.66.91,3.41,1.81,5.25,2.68a8.71,8.71,0,0,0,1.4-3,14.17,14.17,0,0,0,.37-3.26" transform="translate(-119.39 -236.45)"/><path class="cls-1" d="M297.2,264.05a11.2,11.2,0,0,1-.56,3.72,8.27,8.27,0,0,1-1.57,2.72,7.87,7.87,0,0,1-2.41,1.85,14.47,14.47,0,0,1-3.11,1.13,22.23,22.23,0,0,1-3.63.57c-1.29.11-2.62.16-4,.16H255.21V237.39h26.23c1.06,0,2.12.05,3.18.13a19.29,19.29,0,0,1,3,.5,12.16,12.16,0,0,1,2.69,1,7.28,7.28,0,0,1,2.17,1.68,7.6,7.6,0,0,1,1.45,2.52,10.43,10.43,0,0,1,.52,3.49,8.55,8.55,0,0,1-1.77,5.69,9.15,9.15,0,0,1-5.57,2.8,18.88,18.88,0,0,1,4.6.82,8.78,8.78,0,0,1,3.12,1.71,6.52,6.52,0,0,1,1.77,2.65,11,11,0,0,1,.56,3.66M284.79,248.3a4.16,4.16,0,0,0-.21-1.33,2.46,2.46,0,0,0-.78-1.11,4.25,4.25,0,0,0-1.52-.78,8.57,8.57,0,0,0-2.47-.29H265.15v6.91h14.66a9.43,9.43,0,0,0,2.47-.27,4.22,4.22,0,0,0,1.52-.72,2.36,2.36,0,0,0,.78-1.09,4.15,4.15,0,0,0,.21-1.32m2.31,14.6a4.15,4.15,0,0,0-.43-2,2.78,2.78,0,0,0-1.34-1.18,7.32,7.32,0,0,0-2.36-.55c-1-.09-2.11-.14-3.45-.14H265.15v7.8h14.37c1.34,0,2.49-.05,3.45-.13a7,7,0,0,0,2.36-.57,2.85,2.85,0,0,0,1.34-1.19,4.18,4.18,0,0,0,.43-2" transform="translate(-119.39 -236.45)"/><rect class="cls-1" x="197.84" y="0.94" width="9.94" height="36.81"/><polyline class="cls-1" points="275.61 37.75 261.11 37.75 240.26 22.45 240.26 37.75 230.27 37.75 230.27 0.94 240.26 0.94 240.26 14.98 260.63 0.94 273.94 0.94 249.16 18.59 275.61 37.75"/><path class="cls-2" d="M235.29,246.2h-4.21c0,3.11,0,6,0,8.93a19.17,19.17,0,0,1-26.2,18.26,18.85,18.85,0,0,1-12-17.55h9.27a31.72,31.72,0,0,0,1.21,3.81,9.5,9.5,0,0,0,18-3c.27-3.36.06-6.75.06-10.32h-3.91l9-9,8.81,8.89" transform="translate(-119.39 -236.45)"/><path class="cls-2" d="M202,248.08a5,5,0,1,1-5-5,5,5,0,0,1,5,5" transform="translate(-119.39 -236.45)"/></svg>