<svg id="Capa_4" data-name="Capa 4" xmlns="http://www.w3.org/2000/svg" viewBox="0 0 37.77 37.77"><defs><style>.cls-1{fill:#473891;}.cls-2{fill:#eaf4e9;}</style></defs><circle class="cls-1" cx="18.88" cy="18.88" r="18.88"/><path class="cls-2" d="M277.74,250.72h-2.41c0,1.78,0,3.44,0,5.11a11,11,0,0,1-15,10.45,10.78,10.78,0,0,1-6.88-10h5.3a17.26,17.26,0,0,0,.7,2.18,5.44,5.44,0,0,0,10.32-1.73c.15-1.92,0-3.86,0-5.91h-2.24l5.13-5.15,5,5.1" transform="translate(-245.79 -237.48)"/><path class="cls-2" d="M258.86,251.81a3.19,3.19,0,1,1-3.19-3.19,3.18,3.18,0,0,1,3.19,3.19" transform="translate(-245.79 -237.48)"/></svg>